# xmcd
#
# Track frame offsets:
#	187
#	14357
#	27682
#	45215
#	60160
#	74617
#	87595
#	103442
#	116650
#	134637
#	148457
#	167770
#	179362
#	196120
#	211187
#	226370
#	242982
#	261182
#	279062
#	293517
#
# Disc length: 4092 seconds
#
# Revision: 1
# Processed by: cddbd v1.5.1PL0 Copyright (c) Steve Scherf et al.
# Submitted via: CDex 1.50Beta5
#
DISCID=2e0ffa14
DTITLE=鈴木正夫 - 民謡百選(二)
DYEAR=1988
DGENRE=
TTITLE0=鈴木正夫/大漁唄い込み
TTITLE1=菅井兆月/長持唄
TTITLE2=藤みち子/さんさ時雨
TTITLE3=鈴木茂/秋の山唄
TTITLE4=鹿島久美子/米節
TTITLE5=鈴木正夫/お立ち酒
TTITLE6=佐藤サワエ/秋田おばこ
TTITLE7=川崎千恵子/秋田船方節
TTITLE8=小野花子/秋田馬子唄
TTITLE9=小松みどり/秋田大黒舞
TTITLE10=千葉真理子/本荘追分
TTITLE11=佐藤サワエ/秋田音頭
TTITLE12=浅野和子/秋田長持唄
TTITLE13=斉藤栄子/長者の山
TTITLE14=川崎千恵子/喜代節
TTITLE15=伊藤かづ子/真室川音頭
TTITLE16=今泉侃惇/最上川舟唄
TTITLE17=宇野幸子/庄内おばこ
TTITLE18=川崎千恵子/紅花摘み唄
TTITLE19=金沢明子/花笠音頭
EXTD=
EXTT0=
EXTT1=
EXTT2=
EXTT3=
EXTT4=
EXTT5=
EXTT6=
EXTT7=
EXTT8=
EXTT9=
EXTT10=
EXTT11=
EXTT12=
EXTT13=
EXTT14=
EXTT15=
EXTT16=
EXTT17=
EXTT18=
EXTT19=
PLAYORDER=
